<svg xmlns="http://www.w3.org/2000/svg" viewBox="0 0 64 64">
  <defs>
    <radialGradient id="r1" cx="50%" cy="40%" r="50%">
      <stop offset="0%" stop-color="#ff4d6a"/>
      <stop offset="100%" stop-color="#c41e3a"/>
    </radialGradient>
    <radialGradient id="r2" cx="50%" cy="40%" r="50%">
      <stop offset="0%" stop-color="#e8364f"/>
      <stop offset="100%" stop-color="#a01830"/>
    </radialGradient>
  </defs>
  <!-- Stem -->
  <path d="M32 38 C32 42, 30 50, 31 58 Q31.5 61, 32 62" stroke="#2d7a3a" stroke-width="2.5" fill="none" stroke-linecap="round"/>
  <!-- Left leaf -->
  <path d="M31 48 C26 44, 20 46, 18 48 C20 50, 26 50, 31 48Z" fill="#3a9148"/>
  <!-- Right leaf -->
  <path d="M32 52 C36 48, 42 49, 44 51 C42 53, 36 53, 32 52Z" fill="#3a9148"/>
  <!-- Outer petals -->
  <ellipse cx="24" cy="24" rx="10" ry="14" transform="rotate(-30 24 24)" fill="url(#r2)" opacity="0.9"/>
  <ellipse cx="40" cy="24" rx="10" ry="14" transform="rotate(30 40 24)" fill="url(#r2)" opacity="0.9"/>
  <ellipse cx="26" cy="18" rx="9" ry="13" transform="rotate(-15 26 18)" fill="url(#r1)"/>
  <ellipse cx="38" cy="18" rx="9" ry="13" transform="rotate(15 38 18)" fill="url(#r1)"/>
  <!-- Center petals -->
  <ellipse cx="32" cy="16" rx="8" ry="12" fill="url(#r1)"/>
  <ellipse cx="29" cy="20" rx="7" ry="10" transform="rotate(-10 29 20)" fill="#e63950" opacity="0.8"/>
  <ellipse cx="35" cy="20" rx="7" ry="10" transform="rotate(10 35 20)" fill="#e63950" opacity="0.8"/>
  <!-- Inner spiral hint -->
  <ellipse cx="32" cy="18" rx="5" ry="7" fill="#d42a45"/>
  <ellipse cx="32" cy="16" rx="3" ry="5" fill="#c41e3a"/>
</svg>
